<?xml version="1.0" encoding="UTF-8" standalone="no"?>
<svg
        xmlns="http://www.w3.org/2000/svg"
        id="svg8"
        width="162.5038mm"
        height="95.445312mm"
        version="1.1"
        viewBox="10 0 154.76552 95.445312">

    <g
            id="layer1"
            transform="matrix(2.3683226,0,0,3.4674396,0.75421401,-11.916597)">
        <g
                id="g1309"
                transform="matrix(0.35278,0,0,-0.35278,-91.52,161.12)">

            // Kebulas
            <g
                    id="g30"
                    transform="translate(271.02,405.2)"
                    style="fill:#ff8c0a">
                <path
                        id="path32"
                        d="m 0,0 -4.395,-2.532 c 0,0 -2.904,-13.11 2.607,-18.92 1.714,-0.074 3.054,0 3.054,0 0,0 0.373,23.091 20.335,21.899 19.961,-1.192 19.589,-25.325 19.589,-25.325 l 94.596,-1.837 c 0,0 -1.639,27.207 21.6,27.207 15.791,0 19.962,-17.698 18.696,-26.785 0,0 9.236,-0.298 12.29,0.894 0,0 0.298,2.085 -1.117,4.692 l 2.085,9.162 -0.521,5.735 -3.054,2.16 -1.043,7.002 c 0,0 -1.713,4.469 -9.534,7.523 l -0.186,0.633 c 0,0 -9.72,4.283 -31.098,5.251 0,0 -0.099,0.72 -0.893,0.72 h -6.481 l -21.898,19.565 c 0,0 -2.979,2.507 -6.853,3.178 -3.873,0.67 -46.18,3.128 -82.529,0 0,0 -2.905,-0.149 -6.033,-3.129 l 0.298,-0.596 c 0,0 -6.579,-7.299 -11.247,-16.436 0,0 -0.969,0.05 -1.453,-0.769 0,0 -4.258,-0.671 -5.847,-7.623 C 0.968,11.669 0.074,4.221 0,0"
                        style="fill:#ff8c0a"/>
            </g>
            <g
                    id="g34"
                    transform="translate(378.75,441.6)">
                <path
                        id="path36"
                        d="m 0,0 6.406,0.497 22.295,-19.913 c 0,0 -1.638,-1.092 -5.065,-1.39 -3.426,-0.298 -4.171,0 -4.171,0 z"
                        style="fill:#ffffff"/>
            </g>
            <g
                    id="g38"
                    transform="translate(373.99,441.3)">
                <path
                        id="path40"
                        d="m 0,0 17.479,-20.309 -55.565,2.16 L -38.459,0 Z"
                        style="fill:#ffffff"/>
            </g>
            <g
                    id="g42"
                    transform="translate(333.91,441.3)">
                <path
                        id="path44"
                        d="m 0,0 0.348,-18.025 -45.66,1.738 L -36.001,0 Z"
                        style="fill:#ffffff"/>
            </g>
            <g
                    id="g46"
                    transform="translate(452.54,403.56)">
                <path
                        id="path48"
                        d="M 0,0 C 0,0 -1.142,-0.646 -4.568,1.589 -7.995,3.824 -11.471,9.683 -9.733,11.222 -7.995,12.762 1.837,4.37 0,0"
                        style="fill:#ffffff"/>
            </g>
            <g
                    id="g50"
                    transform="translate(458.6,394.08)">
                <path
                        id="path52"
                        d="m 0,0 c 0,0 -2.582,0.05 -2.731,-1.837 -0.149,-1.887 -1.192,-7.2 1.365,-7.3 0,0 0.969,0.497 1.366,3.923 C 0.397,-1.788 0,0 0,0"
                        style="fill:#ffffff"/>
            </g>
            <g
                    id="g54"
                    transform="translate(336.89,414.26)">
                <path
                        id="path56"
                        d="m 0,0 c 0,0 -4.022,0.025 -4.022,1.018 0,0.993 4.469,0.894 4.469,0.894 0,0 0.521,1.539 2.93,1.539 2.11,0 2.135,-1.787 2.135,-1.787 0,0 2.781,-0.298 2.83,-1.093 0.05,-0.794 -2.631,-0.695 -2.631,-0.695 0,0 -0.274,-2.011 -3.129,-1.887 C -0.146,-1.892 0,0 0,0"
                        style="fill:#ffffff"/>
            </g>
            <g
                    id="g58"
                    transform="translate(290.73,441.62)">
                <path
                        id="path60"
                        d="m 0,0 h 1.527 c 0,0 -7.449,-9.311 -11.024,-16.461 h -1.44 c 0,0 4.395,8.739 10.937,16.461"
                        style="fill:#ffffff"/>
            </g>
            <g
                    id="g62"
                    transform="translate(272.51,407.7)">
                <path
                        id="path64"
                        d="m 0,0 c 0,0 -1.117,0 -0.894,1.75 0.224,1.751 1.19,11.806 5.214,11.806 1.825,0 0.596,-3.277 0.596,-3.277 L 1.825,1.043 C 1.825,1.043 1.368,-0.223 0,0"
                        style="fill:#ffffff"/>
            </g>
            <g
                    id="g66"
                    transform="translate(388.86,418.42)">
                <path
                        id="path68"
                        d="m 0,0 -2.607,3.761 c 0,0 0.484,1.118 0.186,1.825 -0.298,0.708 -2.569,4.358 -7.188,3.129 -3.463,-1.676 -3.202,-6.331 0,-7.821 l 2.31,0.112 -0.708,-0.82 c 0,0 0.372,-2.756 4.171,-2.607 C -0.037,-2.272 0,0 0,0"
                        style="fill:#282f39"/>
            </g>
            <g
                    id="g70"
                    transform="translate(308.99,385.93)">
                <path
                        id="path72"
                        d="m 0,0 c 0,-9.379 -7.603,-16.983 -16.983,-16.983 -9.379,0 -16.982,7.604 -16.982,16.983 0,9.379 7.603,16.983 16.982,16.983 C -7.603,16.983 0,9.379 0,0"
                        style="fill:#282f39"/>
            </g>
            <g
                    id="g74"
                    transform="translate(304.82,385.93)"
                    style="fill:#ececec">
                <path
                        id="path76"
                        d="m 0,0 c 0,-7.076 -5.736,-12.811 -12.811,-12.811 -7.076,0 -12.812,5.735 -12.812,12.811 0,7.076 5.736,12.811 12.812,12.811 C -5.736,12.811 0,7.076 0,0"
                        style="fill:#ececec"/>
            </g>
            <g
                    id="g78"
                    transform="translate(444.09,385.93)">
                <path
                        id="path80"
                        d="m 0,0 c 0,-9.379 -7.603,-16.983 -16.983,-16.983 -9.379,0 -16.982,7.604 -16.982,16.983 0,9.379 7.603,16.983 16.982,16.983 C -7.603,16.983 0,9.379 0,0"
                        style="fill:#282f39"/>
            </g>
            <g
                    id="g82"
                    transform="translate(439.92,385.93)"
                    style="fill:#ececec">
                <path
                        id="path84"
                        d="m 0,0 c 0,-7.076 -5.736,-12.811 -12.811,-12.811 -7.076,0 -12.812,5.735 -12.812,12.811 0,7.076 5.736,12.811 12.812,12.811 C -5.736,12.811 0,7.076 0,0"
                        style="fill:#ececec"/>
            </g>
        </g>


        // tekstas
        <text
                id="text1313"
                transform="scale(1.0981,0.91067)"
                x="24.234175"
                y="26.32128"
                font-size="7.341px"
                letter-spacing="0px"
                word-spacing="0px"
                style="font-size:7.34100008px;line-height:1.25;font-family:'Showcard Gothic';font-variant-ligatures:normal;font-variant-caps:normal;font-variant-numeric:normal;font-feature-settings:normal;letter-spacing:0px;word-spacing:0px;fill:#ffffff;stroke-width:0.18353"
                xml:space="preserve">   <tspan
                id="tspan1311"
                x="24.234175"
                y="26.32128"
                font-size="7.341px"
                style="font-size:7.34100008px;font-family:'Showcard Gothic';font-variant-ligatures:normal;font-variant-caps:normal;font-variant-numeric:normal;font-feature-settings:normal;fill:#ffffff;stroke-width:0.18353">NFQ</tspan>  </text>


        // ratlankiai
        <path
                id="path1565"
                transform="matrix(0.12001,0,0,0.10679,-16.503,60.478)"
                d="m 240.08,-318.43 -6.5636,-5.1632 -2.4444,7.9853 -2.2752,-8.0351 -6.6712,5.0234 2.8823,-7.8379 -8.3498,0.14281 6.9388,-4.6468 -6.8391,-4.7924 8.3449,0.31917 -2.7161,-7.897 6.5636,5.1632 2.4444,-7.9853 2.2752,8.0351 6.6712,-5.0234 -2.8823,7.8379 8.3498,-0.14282 -6.9388,4.6468 6.8391,4.7924 -8.3449,-0.31916 z"
                style="stroke-width:0.75">
        </path>
        <path
                id="path1565-7"
                transform="matrix(0.12001,0,0,0.10679,31.396,60.427)"
                d="m 240.08,-318.43 -6.5636,-5.1632 -2.4444,7.9853 -2.2752,-8.0351 -6.6712,5.0234 2.8823,-7.8379 -8.3498,0.14281 6.9388,-4.6468 -6.8391,-4.7924 8.3449,0.31917 -2.7161,-7.897 6.5636,5.1632 2.4444,-7.9853 2.2752,8.0351 6.6712,-5.0234 -2.8823,7.8379 8.3498,-0.14282 -6.9388,4.6468 6.8391,4.7924 -8.3449,-0.31916 z"
                style="stroke-width:0.75"/>
    </g>
</svg>
