<svg id="svg8" width="210mm" height="297mm" version="1.1" viewBox="0 0 210 297" xmlns="http://www.w3.org/2000/svg">
 <g id="layer1">
  <g id="g2087" transform="matrix(.35278 0 0 -.35278 -94.353 129.98)">
   <g id="g1530" transform="translate(-18.676 -5.2425)">
    <g id="g1372" transform="translate(23.313 78.974)">
    //kebulas
     <g id="g126" transform="translate(272.77 276.06)">
      <path id="path128" d="m0 0s-1.203-0.523-1.203-0.68-0.731-2.666-0.731-2.666-3.137-5.594-4.34-10.091c-1.203-4.496-0.314-11.816-0.314-11.816s0.887-5.699 3.136-8.522l17.046-3.085s-1.203 4.81-0.837 9.777 4.549 12.391 11.398 13.751c6.849 1.359 13.018 0.993 17.828-3.869 4.811-4.863 5.804-10.091 4.915-20.6h86.477s-1.22 6.344 0.383 13.454c1.603 7.111 9.202 11.503 15.267 11.503s11.781-1.586 15.197-6.056c3.416-4.471 4.252-10.605 2.649-19.249l18.63 1.394v3.973s-1.725 1.464-1.83 2.615c-0.104 1.15 0.68 9.881 0.68 9.881l-2.457 5.124s-3.73 3.921-11.398 6.152-13.524 3.834-22.238 5.089-16.661 2.021-16.661 2.021l-5.716-0.488s-18.404 10.806-27.815 14.291c0 0-6.964 2.18-12.966 2.37-17.567 0.558-34.368-2.928-34.368-2.928s-12.966-3.137-17.706-4.6c-4.741-1.464-11.851-4.601-11.851-4.601l-1.464 0.069s-4.183-1.254-6.623-1.185l-4.113 2.998-11.432 0.418s-0.349-1.011 1.254-1.394c0 0 1.848-0.035 1.952-1.22 0.105-1.185-0.749-1.83-0.749-1.83" fill="#ff8c00"/>
     </g>
     <g id="g130" transform="translate(316.94 275.6)">
      <path id="path132" d="m0 0c-0.892 0.036-1.341 1.092-0.746 1.758 1.65 1.848 4.181 4.609 4.836 4.919 0.993 0.471 10.77 2.771 14.535 3.137 3.764 0.366 25.793 1.778 25.793 1.778s16.242-6.901 25.862-14.43z" fill="#fff"/>
     </g>
     <g id="g134" transform="translate(366.46 287.65)">
      <path id="path136" d="m0 0 25.305-14.622 6.117 0.471s-16.835 10.352-27.501 14.325z" fill="#fff"/>
     </g>
     <g id="g138" transform="translate(374.25 278.66)">
      <path id="path140" d="m0 0s-1.917-1.185-1.917-1.534v-3.756s0.157-0.496 0.958-0.601c0.802-0.104 2.841-0.174 2.841-0.174s-0.958-1.638-0.906-1.882 0.349-1.133 1.394-1.237c1.046-0.105 2.579-0.018 2.963 0.087 0.383 0.104 1.046 0.854 1.046 1.045 0 0.192-0.994 2.301-0.994 2.301l0.488 0.348 0.035 2.928s-2.196 2.527-5.908 2.475" fill="#282f39"/>
     </g>
     <g id="g142" transform="translate(269.95 265.66)">
      <path id="path144" d="m0 0s-0.575 0.261-0.288 1.647c0.288 1.385 2.615 6.248 4.157 6.169 1.542-0.078-1.516-5.516-1.516-5.516s-1.36-2.588-2.353-2.3" fill="#fff"/>
     </g>
     <g id="g146" transform="translate(334.92 285.34)">
      <path id="path148" d="m0 0 2.11-10.552 1.521-0.061-2.986 10.687z" fill="#282f39"/>
     </g>
     <g id="g150" transform="translate(391.71 266.18)">
      <path id="path152" d="m0 0 8.24-0.832c0.993-0.101 1.55-1.193 1.046-2.054-2.698-4.609-9.74-16.331-12.005-17.086-2.823-0.941-46.636 0-46.636 0s44.859 1.255 45.904 1.673c1.046 0.418 10.875 15.685 10.875 15.685z" fill="#fff"/>
     </g>
     <g id="g154" transform="translate(429.11 267.82)">
      <path id="path156" d="m0 0s13.733-3.416 18.961-8.435c0 0 3.906-1.184 5.996-1.394 0 0-0.61 2.178-3.8 4.322-3.189 2.143-15.58 5.228-15.58 5.228z" fill="#fff"/>
     </g>
     <g id="g158" transform="translate(317.79 246.21)">
      <path id="path160" d="m0 0c0-8.258-6.695-14.953-14.953-14.953s-14.953 6.695-14.953 14.953 6.695 14.953 14.953 14.953 14.953-6.695 14.953-14.953" fill="#282f39"/>
     </g>
     <g id="g162" transform="translate(314.33 246.21)">
      <path id="path164" d="m0 0c0-6.353-5.15-11.502-11.502-11.502-6.353 0-11.503 5.149-11.503 11.502s5.15 11.502 11.503 11.502c6.352 0 11.502-5.149 11.502-11.502" fill="#ececec"/>
     </g>
     <g id="g166" transform="translate(437.72 246.21)">
      <path id="path168" d="m0 0c0-8.258-6.695-14.953-14.953-14.953s-14.953 6.695-14.953 14.953 6.695 14.953 14.953 14.953 14.953-6.695 14.953-14.953" fill="#282f39"/>
     </g>
     <g id="g170" transform="translate(434.27 246.21)" fill="#ececec">
      <path id="path172" d="m0 0c0-6.353-5.15-11.502-11.502-11.502-6.353 0-11.503 5.149-11.503 11.502s5.15 11.502 11.503 11.502c6.352 0 11.502-5.149 11.502-11.502" fill="#ececec"/>
     </g>
    </g>
    //tekstas
    <text id="text1313-7" transform="scale(1.0981 -.91067)" x="321.98712" y="-363.36053" fill="#ffffff" font-family="'Showcard Gothic'" font-size="20.809px" letter-spacing="0px" stroke-width=".52024" word-spacing="0px" style="font-feature-settings:normal;font-variant-caps:normal;font-variant-ligatures:normal;font-variant-numeric:normal;line-height:1.25" xml:space="preserve"><tspan id="tspan1311-5" x="321.98712" y="-363.36053" fill="#ffffff" font-family="'Showcard Gothic'" font-size="20.809px" stroke-width=".52024" style="font-feature-settings:normal;font-variant-caps:normal;font-variant-ligatures:normal;font-variant-numeric:normal">NFQ</tspan></text>
   </g>

   //ratlankiai
   <path id="path1565-3" transform="matrix(.3402 0 0 -.30271 228.68 219.58)" d="m240.08-318.43-6.5636-5.1632-2.4444 7.9853-2.2752-8.0351-6.6712 5.0234 2.8823-7.8379-8.3498 0.14281 6.9388-4.6468-6.8391-4.7924 8.3449 0.31917-2.7161-7.897 6.5636 5.1632 2.4444-7.9853 2.2752 8.0351 6.6712-5.0234-2.8823 7.8379 8.3498-0.14282-6.9388 4.6468 6.8391 4.7924-8.3449-0.31916z" stroke-width=".75"/>
   <path id="path1565-1" transform="matrix(.3402 0 0 -.30271 348.4 219.55)" d="m240.08-318.43-6.5636-5.1632-2.4444 7.9853-2.2752-8.0351-6.6712 5.0234 2.8823-7.8379-8.3498 0.14281 6.9388-4.6468-6.8391-4.7924 8.3449 0.31917-2.7161-7.897 6.5636 5.1632 2.4444-7.9853 2.2752 8.0351 6.6712-5.0234-2.8823 7.8379 8.3498-0.14282-6.9388 4.6468 6.8391 4.7924-8.3449-0.31916z" stroke-width=".75"/>
  </g>
 </g>
</svg>
