<svg width="68.069mm" height="34.091mm" version="1.1" viewBox="0 0 68.069 34.091" xmlns="http://www.w3.org/2000/svg">
 <g transform="matrix(1 0 0 1.6347 -.71259 -1.4068)">
  <g transform="matrix(.35278 0 0 -.35278 -96.129 97.744)">
   <g transform="translate(-12.451,-7.8637)">
    <g transform="translate(-5.3288,-4.6337)">//kebulas
     <g transform="translate(297.25,260.85)" fill="#ff8c00">
      <path d="m0 0s-0.205-1.304 0.23-2.174c0 0-3.836-1.458-4.731-3.376-0.896-1.918-0.205-4.706-0.205-4.706s0.921-3.078 3.751-5.499l-3.001 0.136-0.187-5.328 5.652-0.358v-1.151l18.594-0.563s-0.409 8.236 2.098 14.016c2.506 5.78 9.719 8.645 13.862 9.003 4.144 0.358 13.351-0.205 17.341-6.036 3.99-5.832 3.632-7.059 3.632-7.059s0.716-4.399 0.512-6.599c-0.205-2.2-0.614-4.195-0.256-5.32 0 0 25.167-0.153 33.147 0.46 0 0 41.039-0.562 46.154-0.869 1.276-0.077 2.326-0.143 3.183-0.199 1.794-0.118 3.259 1.401 3.085 3.191l-0.45 4.63s0.46 10.384 8.901 15.192c8.44 4.809 16.931 1.33 19.591-1.023s5.218-6.496 5.269-10.589c0.051-4.092-0.511-7.315-0.511-7.315s-0.512-2.608 0.102-3.887c0 0 10.282 0.204 12.226 1.586 0 0-0.998 1.815-4.502 3.478 0 0 0.819 0.665 1.023 2.2 0.205 1.534-0.051 2.02 0.563 3.12s1.407 1.79 1.611 3.376c0.205 1.586-0.486 2.123-0.486 2.123s0.179 1.867-0.46 2.685c-0.64 0.819-4.641 4.534-8.21 6.599-6.011 3.479-15.576 7.315-47.905 7.929 0 0-26.873 13.573-31.443 15.823-4.569 2.251-21.213 3.399-28.97 2.439-5.099-0.631-8.5-1.111-10.2-1.36-0.836-0.123-1.653-0.313-2.457-0.571l-14.573-4.668-22.712-8.662-6.889-0.818s-4.433 2.728-10.913 3.478c0 0-0.409-0.409 0.341-1.398 0.751-0.989 2.729-3.683 2.729-3.683l-0.41-0.205v-0.818s-3.785-0.648-3.921-2.422c-0.137-1.773 0.307-4.706 0.307-4.706z" fill="#ff8c00"/>
     </g>
     <g transform="translate(417.01,268.69)">
      <path d="m0 0s-13.873 10.06-21.785 14.084c0 0-0.784 0.273-0.733 1.475l0.435 0.154 30.649-15.844s-3.219-0.792-8.566 0.131" fill="#fff"/>
     </g>
     <g transform="translate(358.32,272.41)">
      <path d="m0 0s-0.563 0.844-0.179 2.2c0.384 1.355 3.657 7.617 8.44 9.154s21.076 0.128 23.795-0.953c5.491-2.182 17.392-8.832 23.803-14.118 0 0-34.221 0.034-47.163 1.466-8.491 1.023-8.696 2.251-8.696 2.251" fill="#fff"/>
     </g>
     <g transform="translate(318.06,271.65)">
      <path d="m0 0s14.793 5.871 19.755 7.61 16.472 5.177 16.472 5.177-11.049-10.599-14.835-11.827c-3.785-1.227-21.392-0.96-21.392-0.96" fill="#fff"/>
     </g>
     <g transform="translate(408.4,266.27)">
      <path d="m0 0s0.768 1.963-1.586 2.225c-2.353 0.262-4.271 0.307-4.322 2.276-0.051 1.97 0.129 4.074 3.324 3.8 3.196-0.274 6.011-4.311 7.273-7.789 0 0 0.222-0.495-0.477-0.648-0.699-0.154-4.212 0.136-4.212 0.136" fill="#282f39"/>
     </g>
     <g transform="translate(351.89,243.51)">
      <path d="m0 0c0-8.56-6.939-15.499-15.499-15.499-8.561 0-15.5 6.939-15.5 15.499s6.939 15.499 15.5 15.499c8.56 0 15.499-6.939 15.499-15.499" fill="#282f39"/>
     </g>
     <g transform="translate(347.7,243.51)" fill="#ececec">
      <path d="m0 0c0-6.244-5.061-11.305-11.305-11.305-6.243 0-11.305 5.061-11.305 11.305s5.062 11.305 11.305 11.305c6.244 0 11.305-5.061 11.305-11.305" fill="#ececec"/>
     </g>
     <g transform="translate(471.51,244.26)">
      <path d="m0 0c0-8.146-6.603-14.749-14.749-14.749s-14.749 6.603-14.749 14.749 6.603 14.749 14.749 14.749 14.749-6.603 14.749-14.749" fill="#282f39"/>
     </g>
     <g transform="translate(467.52,244.26)" fill="#ececec">
      <path d="m0 0c0-5.941-4.816-10.758-10.758-10.758-5.941 0-10.757 4.817-10.757 10.758s4.816 10.758 10.757 10.758c5.942 0 10.758-4.817 10.758-10.758" fill="#ececec"/>
     </g>
     <g transform="translate(359.32,264.87)">
      <path d="m0 0s-2.953 0.237-2.905 0.871c0.047 0.635 3.325 0.326 3.325 0.326s0.456 0.955 2.225 0.823c1.55-0.116 1.483-1.26 1.483-1.26s2.028-0.343 2.026-0.853c-2e-3 -0.511-1.966-0.3-1.966-0.3s-0.297-1.27-2.388-1.034c-1.998 0.226-1.8 1.427-1.8 1.427" fill="#fff"/>
     </g>
    </g>//tekstas
    <text transform="scale(1.0981 -.91067)" x="334.44196" y="-262.16263" fill="#ffffff" font-family="'Showcard Gothic'" font-size="20.809px" letter-spacing="0px" stroke-width=".52024" word-spacing="0px" style="font-feature-settings:normal;font-variant-caps:normal;font-variant-ligatures:normal;font-variant-numeric:normal;line-height:1.25" xml:space="preserve"><tspan x="334.44196" y="-262.16263" fill="#ffffff" font-family="'Showcard Gothic'" font-size="20.809px" stroke-width=".52024" style="font-feature-settings:normal;font-variant-caps:normal;font-variant-ligatures:normal;font-variant-numeric:normal">NFQ</tspan></text>
   </g>//ratlankiai
   <path transform="matrix(.3402 0 0 -.30271 360.37 131.43)" d="m240.08-318.43-6.5636-5.1632-2.4444 7.9853-2.2752-8.0351-6.6712 5.0234 2.8823-7.8379-8.3498 0.14281 6.9388-4.6468-6.8391-4.7924 8.3449 0.31917-2.7161-7.897 6.5636 5.1632 2.4444-7.9853 2.2752 8.0351 6.6712-5.0234-2.8823 7.8379 8.3498-0.14282-6.9388 4.6468 6.8391 4.7924-8.3449-0.31916z" stroke-width=".75"/>
   <path transform="matrix(.3402 0 0 -.30271 239.85 130.48)" d="m240.08-318.43-6.5636-5.1632-2.4444 7.9853-2.2752-8.0351-6.6712 5.0234 2.8823-7.8379-8.3498 0.14281 6.9388-4.6468-6.8391-4.7924 8.3449 0.31917-2.7161-7.897 6.5636 5.1632 2.4444-7.9853 2.2752 8.0351 6.6712-5.0234-2.8823 7.8379 8.3498-0.14282-6.9388 4.6468 6.8391 4.7924-8.3449-0.31916z" stroke-width=".75"/>
  </g>
 </g>
</svg>
