<?xml version="1.0" encoding="UTF-8" standalone="no"?>
<svg
   xmlns:dc="http://purl.org/dc/elements/1.1/"
   xmlns:cc="http://creativecommons.org/ns#"
   xmlns:rdf="http://www.w3.org/1999/02/22-rdf-syntax-ns#"
   xmlns:svg="http://www.w3.org/2000/svg"
   xmlns="http://www.w3.org/2000/svg"
   xmlns:sodipodi="http://sodipodi.sourceforge.net/DTD/sodipodi-0.dtd"
   xmlns:inkscape="http://www.inkscape.org/namespaces/inkscape"
   id="svg8"
   width="68.068665mm"
   height="34.091438mm"
   version="1.1"
   viewBox="0 0 68.068665 34.091438"
   sodipodi:docname="cars3.svg"
   inkscape:version="0.92.4 (f8dce91, 2019-08-02)">
  <metadata
     id="metadata359">
    <rdf:RDF>
      <cc:Work
         rdf:about="">
        <dc:format>image/svg+xml</dc:format>
        <dc:type
           rdf:resource="http://purl.org/dc/dcmitype/StillImage" />
      </cc:Work>
    </rdf:RDF>
  </metadata>
  <defs
     id="defs357" />
  <sodipodi:namedview
     pagecolor="#ffffff"
     bordercolor="#666666"
     borderopacity="1"
     objecttolerance="10"
     gridtolerance="10"
     guidetolerance="10"
     inkscape:pageopacity="0"
     inkscape:pageshadow="2"
     inkscape:window-width="1853"
     inkscape:window-height="1025"
     id="namedview355"
     showgrid="false"
     inkscape:zoom="2.3786088"
     inkscape:cx="272.66106"
     inkscape:cy="-2.99207"
     inkscape:window-x="67"
     inkscape:window-y="27"
     inkscape:window-maximized="1"
     inkscape:current-layer="svg8" />
  <g
     id="layer1"
     transform="matrix(1,0,0,1.6347254,-0.71259419,-1.4068071)">
    <g
       id="g2155"
       transform="matrix(0.35278,0,0,-0.35278,-96.129,97.744)"><g
   id="g1476"
   transform="translate(-12.451,-7.8637)">
  <g
     id="g2023"><g
   id="g1412"
   transform="translate(-5.3288,-4.6337)">
     //kebulas
      <g
   id="g86"
   transform="translate(297.25,260.85)"
   style="fill:#ff8c00">
  <path
     id="path88"
     d="m 0,0 c 0,0 -0.205,-1.304 0.23,-2.174 0,0 -3.836,-1.458 -4.731,-3.376 -0.896,-1.918 -0.205,-4.706 -0.205,-4.706 0,0 0.921,-3.078 3.751,-5.499 l -3.001,0.136 -0.187,-5.328 5.652,-0.358 v -1.151 l 18.594,-0.563 c 0,0 -0.409,8.236 2.098,14.016 2.506,5.78 9.719,8.645 13.862,9.003 4.144,0.358 13.351,-0.205 17.341,-6.036 3.99,-5.832 3.632,-7.059 3.632,-7.059 0,0 0.716,-4.399 0.512,-6.599 -0.205,-2.2 -0.614,-4.195 -0.256,-5.32 0,0 25.167,-0.153 33.147,0.46 0,0 41.039,-0.562 46.154,-0.869 1.276,-0.077 2.326,-0.143 3.183,-0.199 1.794,-0.118 3.259,1.401 3.085,3.191 l -0.45,4.63 c 0,0 0.46,10.384 8.901,15.192 8.44,4.809 16.931,1.33 19.591,-1.023 2.66,-2.353 5.218,-6.496 5.269,-10.589 0.051,-4.092 -0.511,-7.315 -0.511,-7.315 0,0 -0.512,-2.608 0.102,-3.887 0,0 10.282,0.204 12.226,1.586 0,0 -0.998,1.815 -4.502,3.478 0,0 0.819,0.665 1.023,2.2 0.205,1.534 -0.051,2.02 0.563,3.12 0.614,1.1 1.407,1.79 1.611,3.376 0.205,1.586 -0.486,2.123 -0.486,2.123 0,0 0.179,1.867 -0.46,2.685 -0.64,0.819 -4.641,4.534 -8.21,6.599 -6.011,3.479 -15.576,7.315 -47.905,7.929 0,0 -26.873,13.573 -31.443,15.823 -4.569,2.251 -21.213,3.399 -28.97,2.439 -5.099,-0.631 -8.5,-1.111 -10.2,-1.36 -0.836,-0.123 -1.653,-0.313 -2.457,-0.571 L 41.98,19.336 19.268,10.674 12.379,9.856 c 0,0 -4.433,2.728 -10.913,3.478 0,0 -0.409,-0.409 0.341,-1.398 C 2.558,10.947 4.536,8.253 4.536,8.253 L 4.126,8.048 V 7.23 c 0,0 -3.785,-0.648 -3.921,-2.422 C 0.068,3.035 0.512,0.102 0.512,0.102 Z"
     inkscape:connector-curvature="0"
     style="fill:#ff8c00" />
</g>
<g
   id="g90"
   transform="translate(417.01,268.69)">
  <path
     id="path92"
     d="m 0,0 c 0,0 -13.873,10.06 -21.785,14.084 0,0 -0.784,0.273 -0.733,1.475 l 0.435,0.154 L 8.566,-0.131 C 8.566,-0.131 5.347,-0.923 0,0"
     inkscape:connector-curvature="0"
     style="fill:#ffffff" />
</g>
<g
   id="g94"
   transform="translate(358.32,272.41)">
  <path
     id="path96"
     d="m 0,0 c 0,0 -0.563,0.844 -0.179,2.2 0.384,1.355 3.657,7.617 8.44,9.154 4.783,1.537 21.076,0.128 23.795,-0.953 5.491,-2.182 17.392,-8.832 23.803,-14.118 0,0 -34.221,0.034 -47.163,1.466 C 0.205,-1.228 0,0 0,0"
     inkscape:connector-curvature="0"
     style="fill:#ffffff" />
</g>
<g
   id="g98"
   transform="translate(318.06,271.65)">
  <path
     id="path100"
     d="m 0,0 c 0,0 14.793,5.871 19.755,7.61 4.962,1.739 16.472,5.177 16.472,5.177 0,0 -11.049,-10.599 -14.835,-11.827 C 17.607,-0.267 0,0 0,0"
     inkscape:connector-curvature="0"
     style="fill:#ffffff" />
</g>
<g
   id="g102"
   transform="translate(408.4,266.27)">
  <path
     id="path104"
     d="m 0,0 c 0,0 0.768,1.963 -1.586,2.225 -2.353,0.262 -4.271,0.307 -4.322,2.276 -0.051,1.97 0.129,4.074 3.324,3.8 3.196,-0.274 6.011,-4.311 7.273,-7.789 0,0 0.222,-0.495 -0.477,-0.648 C 3.513,-0.29 0,0 0,0"
     inkscape:connector-curvature="0"
     style="fill:#282f39" />
</g>
<g
   id="g106"
   transform="translate(351.89,243.51)">
  <path
     id="path108"
     d="m 0,0 c 0,-8.56 -6.939,-15.499 -15.499,-15.499 -8.561,0 -15.5,6.939 -15.5,15.499 0,8.56 6.939,15.499 15.5,15.499 C -6.939,15.499 0,8.56 0,0"
     inkscape:connector-curvature="0"
     style="fill:#282f39" />
</g>
<g
   id="g110"
   transform="translate(347.7,243.51)"
   style="fill:#ececec">
  <path
     id="path112"
     d="m 0,0 c 0,-6.244 -5.061,-11.305 -11.305,-11.305 -6.243,0 -11.305,5.061 -11.305,11.305 0,6.244 5.062,11.305 11.305,11.305 C -5.061,11.305 0,6.244 0,0"
     inkscape:connector-curvature="0"
     style="fill:#ececec" />
</g>
<g
   id="g114"
   transform="translate(471.51,244.26)">
  <path
     id="path116"
     d="m 0,0 c 0,-8.146 -6.603,-14.749 -14.749,-14.749 -8.146,0 -14.749,6.603 -14.749,14.749 0,8.146 6.603,14.749 14.749,14.749 C -6.603,14.749 0,8.146 0,0"
     inkscape:connector-curvature="0"
     style="fill:#282f39" />
</g>
<g
   id="g118"
   transform="translate(467.52,244.26)"
   style="fill:#ececec">
  <path
     id="path120"
     d="m 0,0 c 0,-5.941 -4.816,-10.758 -10.758,-10.758 -5.941,0 -10.757,4.817 -10.757,10.758 0,5.941 4.816,10.758 10.757,10.758 C -4.816,10.758 0,5.941 0,0"
     inkscape:connector-curvature="0"
     style="fill:#ececec" />
</g>
<g
   id="g122"
   transform="translate(359.32,264.87)">
  <path
     id="path124"
     d="m 0,0 c 0,0 -2.953,0.237 -2.905,0.871 0.047,0.635 3.325,0.326 3.325,0.326 0,0 0.456,0.955 2.225,0.823 1.55,-0.116 1.483,-1.26 1.483,-1.26 0,0 2.028,-0.343 2.026,-0.853 -0.002,-0.511 -1.966,-0.3 -1.966,-0.3 0,0 -0.297,-1.27 -2.388,-1.034 C -0.198,-1.201 0,0 0,0"
     inkscape:connector-curvature="0"
     style="fill:#ffffff" />
</g>
</g>


     //tekstas
     <text
   id="text1313-7-6"
   transform="scale(1.0981,-0.91067)"
   x="334.44196"
   y="-262.16263"
   font-size="20.809px"
   letter-spacing="0px"
   word-spacing="0px"
   style="font-size:20.80900002px;line-height:1.25;font-family:'Showcard Gothic';font-variant-ligatures:normal;font-variant-caps:normal;font-variant-numeric:normal;font-feature-settings:normal;letter-spacing:0px;word-spacing:0px;fill:#ffffff;stroke-width:0.52024001"
   xml:space="preserve"><tspan
     id="tspan1311-5-7"
     x="334.44196"
     y="-262.16263"
     font-size="20.809px"
     style="font-size:20.80900002px;font-family:'Showcard Gothic';font-variant-ligatures:normal;font-variant-caps:normal;font-variant-numeric:normal;font-feature-settings:normal;fill:#ffffff;stroke-width:0.52024001">NFQ</tspan></text>
</g>
</g>


   //ratlankiai
   <path
   id="path1565-6"
   transform="matrix(0.3402,0,0,-0.30271,360.37,131.43)"
   d="m 240.08,-318.43 -6.5636,-5.1632 -2.4444,7.9853 -2.2752,-8.0351 -6.6712,5.0234 2.8823,-7.8379 -8.3498,0.14281 6.9388,-4.6468 -6.8391,-4.7924 8.3449,0.31917 -2.7161,-7.897 6.5636,5.1632 2.4444,-7.9853 2.2752,8.0351 6.6712,-5.0234 -2.8823,7.8379 8.3498,-0.14282 -6.9388,4.6468 6.8391,4.7924 -8.3449,-0.31916 z"
   inkscape:connector-curvature="0"
   style="stroke-width:0.75" />
<path
   id="path1565-6-4"
   transform="matrix(0.3402,0,0,-0.30271,239.85,130.48)"
   d="m 240.08,-318.43 -6.5636,-5.1632 -2.4444,7.9853 -2.2752,-8.0351 -6.6712,5.0234 2.8823,-7.8379 -8.3498,0.14281 6.9388,-4.6468 -6.8391,-4.7924 8.3449,0.31917 -2.7161,-7.897 6.5636,5.1632 2.4444,-7.9853 2.2752,8.0351 6.6712,-5.0234 -2.8823,7.8379 8.3498,-0.14282 -6.9388,4.6468 6.8391,4.7924 -8.3449,-0.31916 z"
   inkscape:connector-curvature="0"
   style="stroke-width:0.75" />
</g>
  </g>
</svg>
