<?xml version="1.0" encoding="UTF-8" standalone="no"?>
<svg
   xmlns:dc="http://purl.org/dc/elements/1.1/"
   xmlns:cc="http://creativecommons.org/ns#"
   xmlns:rdf="http://www.w3.org/1999/02/22-rdf-syntax-ns#"
   xmlns:svg="http://www.w3.org/2000/svg"
   xmlns="http://www.w3.org/2000/svg"
   xmlns:sodipodi="http://sodipodi.sourceforge.net/DTD/sodipodi-0.dtd"
   xmlns:inkscape="http://www.inkscape.org/namespaces/inkscape"
   id="svg8"
   width="67.876732mm"
   height="31.312943mm"
   version="1.1"
   viewBox="0 0 67.876732 31.312942"
   sodipodi:docname="cars2.svg"
   inkscape:version="0.92.4 (f8dce91, 2019-08-02)">
  <metadata
     id="metadata177">
    <rdf:RDF>
      <cc:Work
         rdf:about="">
        <dc:format>image/svg+xml</dc:format>
        <dc:type
           rdf:resource="http://purl.org/dc/dcmitype/StillImage" />
        <dc:title></dc:title>
      </cc:Work>
    </rdf:RDF>
  </metadata>
  <defs
     id="defs175" />
  <sodipodi:namedview
     pagecolor="#ffffff"
     bordercolor="#666666"
     borderopacity="1"
     objecttolerance="10"
     gridtolerance="10"
     guidetolerance="10"
     inkscape:pageopacity="0"
     inkscape:pageshadow="2"
     inkscape:window-width="1853"
     inkscape:window-height="1025"
     id="namedview173"
     showgrid="false"
     inkscape:zoom="2.1266375"
     inkscape:cx="268.52832"
     inkscape:cy="39.214049"
     inkscape:window-x="67"
     inkscape:window-y="27"
     inkscape:window-maximized="1"
     inkscape:current-layer="svg8" />
  <g
     id="layer1"
     transform="matrix(1,0,0,1.5009435,-1.0749574,-2.2874155)">
    <g
       id="g2087"
       transform="matrix(0.35278,0,0,-0.35278,-94.353,129.98)"><g
   id="g1530"
   transform="translate(-18.676,-5.2425)"><g
   id="g1372"
   transform="translate(23.313,78.974)">
    //kebulas
     <g
   id="g126"
   transform="translate(272.77,276.06)">
  <path
     id="path128"
     d="m 0,0 c 0,0 -1.203,-0.523 -1.203,-0.68 0,-0.157 -0.731,-2.666 -0.731,-2.666 0,0 -3.137,-5.594 -4.34,-10.091 -1.203,-4.496 -0.314,-11.816 -0.314,-11.816 0,0 0.887,-5.699 3.136,-8.522 l 17.046,-3.085 c 0,0 -1.203,4.81 -0.837,9.777 0.366,4.967 4.549,12.391 11.398,13.751 6.849,1.359 13.018,0.993 17.828,-3.869 4.811,-4.863 5.804,-10.091 4.915,-20.6 h 86.477 c 0,0 -1.22,6.344 0.383,13.454 1.603,7.111 9.202,11.503 15.267,11.503 6.065,0 11.781,-1.586 15.197,-6.056 3.416,-4.471 4.252,-10.605 2.649,-19.249 l 18.63,1.394 v 3.973 c 0,0 -1.725,1.464 -1.83,2.615 -0.104,1.15 0.68,9.881 0.68,9.881 l -2.457,5.124 c 0,0 -3.73,3.921 -11.398,6.152 -7.668,2.231 -13.524,3.834 -22.238,5.089 -8.714,1.255 -16.661,2.021 -16.661,2.021 l -5.716,-0.488 c 0,0 -18.404,10.806 -27.815,14.291 0,0 -6.964,2.18 -12.966,2.37 -17.567,0.558 -34.368,-2.928 -34.368,-2.928 0,0 -12.966,-3.137 -17.706,-4.6 C 28.285,5.281 21.175,2.144 21.175,2.144 l -1.464,0.069 c 0,0 -4.183,-1.254 -6.623,-1.185 L 8.975,4.026 -2.457,4.444 c 0,0 -0.349,-1.011 1.254,-1.394 0,0 1.848,-0.035 1.952,-1.22 C 0.854,0.645 0,0 0,0"
     inkscape:connector-curvature="0"
     style="fill:#ff8c00" />
</g>
<g
   id="g130"
   transform="translate(316.94,275.6)">
  <path
     id="path132"
     d="m 0,0 c -0.892,0.036 -1.341,1.092 -0.746,1.758 1.65,1.848 4.181,4.609 4.836,4.919 0.993,0.471 10.77,2.771 14.535,3.137 3.764,0.366 25.793,1.778 25.793,1.778 0,0 16.242,-6.901 25.862,-14.43 z"
     inkscape:connector-curvature="0"
     style="fill:#ffffff" />
</g>
<g
   id="g134"
   transform="translate(366.46,287.65)">
  <path
     id="path136"
     d="m 0,0 25.305,-14.622 6.117,0.471 c 0,0 -16.835,10.352 -27.501,14.325 z"
     inkscape:connector-curvature="0"
     style="fill:#ffffff" />
</g>
<g
   id="g138"
   transform="translate(374.25,278.66)">
  <path
     id="path140"
     d="M 0,0 C 0,0 -1.917,-1.185 -1.917,-1.534 V -5.29 c 0,0 0.157,-0.496 0.958,-0.601 0.802,-0.104 2.841,-0.174 2.841,-0.174 0,0 -0.958,-1.638 -0.906,-1.882 0.052,-0.244 0.349,-1.133 1.394,-1.237 1.046,-0.105 2.579,-0.018 2.963,0.087 0.383,0.104 1.046,0.854 1.046,1.045 0,0.192 -0.994,2.301 -0.994,2.301 l 0.488,0.348 0.035,2.928 C 5.908,-2.475 3.712,0.052 0,0"
     inkscape:connector-curvature="0"
     style="fill:#282f39" />
</g>
<g
   id="g142"
   transform="translate(269.95,265.66)">
  <path
     id="path144"
     d="M 0,0 C 0,0 -0.575,0.261 -0.288,1.647 0,3.032 2.327,7.895 3.869,7.816 5.411,7.738 2.353,2.3 2.353,2.3 2.353,2.3 0.993,-0.288 0,0"
     inkscape:connector-curvature="0"
     style="fill:#ffffff" />
</g>
<g
   id="g146"
   transform="translate(334.92,285.34)">
  <path
     id="path148"
     d="M 0,0 2.11,-10.552 3.631,-10.613 0.645,0.074 Z"
     inkscape:connector-curvature="0"
     style="fill:#282f39" />
</g>
<g
   id="g150"
   transform="translate(391.71,266.18)">
  <path
     id="path152"
     d="m 0,0 8.24,-0.832 c 0.993,-0.101 1.55,-1.193 1.046,-2.054 -2.698,-4.609 -9.74,-16.331 -12.005,-17.086 -2.823,-0.941 -46.636,0 -46.636,0 0,0 44.859,1.255 45.904,1.673 1.046,0.418 10.875,15.685 10.875,15.685 z"
     inkscape:connector-curvature="0"
     style="fill:#ffffff" />
</g>
<g
   id="g154"
   transform="translate(429.11,267.82)">
  <path
     id="path156"
     d="m 0,0 c 0,0 13.733,-3.416 18.961,-8.435 0,0 3.906,-1.184 5.996,-1.394 0,0 -0.61,2.178 -3.8,4.322 -3.189,2.143 -15.58,5.228 -15.58,5.228 z"
     inkscape:connector-curvature="0"
     style="fill:#ffffff" />
</g>
<g
   id="g158"
   transform="translate(317.79,246.21)">
  <path
     id="path160"
     d="m 0,0 c 0,-8.258 -6.695,-14.953 -14.953,-14.953 -8.258,0 -14.953,6.695 -14.953,14.953 0,8.258 6.695,14.953 14.953,14.953 C -6.695,14.953 0,8.258 0,0"
     inkscape:connector-curvature="0"
     style="fill:#282f39" />
</g>
<g
   id="g162"
   transform="translate(314.33,246.21)">
  <path
     id="path164"
     d="m 0,0 c 0,-6.353 -5.15,-11.502 -11.502,-11.502 -6.353,0 -11.503,5.149 -11.503,11.502 0,6.353 5.15,11.502 11.503,11.502 C -5.15,11.502 0,6.353 0,0"
     inkscape:connector-curvature="0"
     style="fill:#ececec" />
</g>
<g
   id="g166"
   transform="translate(437.72,246.21)">
  <path
     id="path168"
     d="m 0,0 c 0,-8.258 -6.695,-14.953 -14.953,-14.953 -8.258,0 -14.953,6.695 -14.953,14.953 0,8.258 6.695,14.953 14.953,14.953 C -6.695,14.953 0,8.258 0,0"
     inkscape:connector-curvature="0"
     style="fill:#282f39" />
</g>
<g
   id="g170"
   transform="translate(434.27,246.21)"
   style="fill:#ececec">
  <path
     id="path172"
     d="m 0,0 c 0,-6.353 -5.15,-11.502 -11.502,-11.502 -6.353,0 -11.503,5.149 -11.503,11.502 0,6.353 5.15,11.502 11.503,11.502 C -5.15,11.502 0,6.353 0,0"
     inkscape:connector-curvature="0"
     style="fill:#ececec" />
</g>
</g>

    //tekstas
    <text
   id="text1313-7"
   transform="scale(1.0981,-0.91067)"
   x="321.98712"
   y="-363.36053"
   font-size="20.809px"
   letter-spacing="0px"
   word-spacing="0px"
   style="font-size:20.80900002px;line-height:1.25;font-family:'Showcard Gothic';font-variant-ligatures:normal;font-variant-caps:normal;font-variant-numeric:normal;font-feature-settings:normal;letter-spacing:0px;word-spacing:0px;fill:#ffffff;stroke-width:0.52024001"
   xml:space="preserve"><tspan
     id="tspan1311-5"
     x="321.98712"
     y="-363.36053"
     font-size="20.809px"
     style="font-size:20.80900002px;font-family:'Showcard Gothic';font-variant-ligatures:normal;font-variant-caps:normal;font-variant-numeric:normal;font-feature-settings:normal;fill:#ffffff;stroke-width:0.52024001">NFQ</tspan></text>
</g>


   //ratlankiai
   <path
   id="path1565-3"
   transform="matrix(0.3402,0,0,-0.30271,228.68,219.58)"
   d="m 240.08,-318.43 -6.5636,-5.1632 -2.4444,7.9853 -2.2752,-8.0351 -6.6712,5.0234 2.8823,-7.8379 -8.3498,0.14281 6.9388,-4.6468 -6.8391,-4.7924 8.3449,0.31917 -2.7161,-7.897 6.5636,5.1632 2.4444,-7.9853 2.2752,8.0351 6.6712,-5.0234 -2.8823,7.8379 8.3498,-0.14282 -6.9388,4.6468 6.8391,4.7924 -8.3449,-0.31916 z"
   inkscape:connector-curvature="0"
   style="stroke-width:0.75" />
<path
   id="path1565-1"
   transform="matrix(0.3402,0,0,-0.30271,348.4,219.55)"
   d="m 240.08,-318.43 -6.5636,-5.1632 -2.4444,7.9853 -2.2752,-8.0351 -6.6712,5.0234 2.8823,-7.8379 -8.3498,0.14281 6.9388,-4.6468 -6.8391,-4.7924 8.3449,0.31917 -2.7161,-7.897 6.5636,5.1632 2.4444,-7.9853 2.2752,8.0351 6.6712,-5.0234 -2.8823,7.8379 8.3498,-0.14282 -6.9388,4.6468 6.8391,4.7924 -8.3449,-0.31916 z"
   inkscape:connector-curvature="0"
   style="stroke-width:0.75" />
</g>
  </g>
</svg>
