<?xml version="1.0" encoding="UTF-8" standalone="no"?>
<svg
   xmlns:dc="http://purl.org/dc/elements/1.1/"
   xmlns:cc="http://creativecommons.org/ns#"
   xmlns:rdf="http://www.w3.org/1999/02/22-rdf-syntax-ns#"
   xmlns:svg="http://www.w3.org/2000/svg"
   xmlns="http://www.w3.org/2000/svg"
   xmlns:sodipodi="http://sodipodi.sourceforge.net/DTD/sodipodi-0.dtd"
   xmlns:inkscape="http://www.inkscape.org/namespaces/inkscape"
   version="1.1"
   id="svg66"
   sodipodi:docname="image.svg"
   inkscape:version="0.92.4 (5da689c313, 2019-01-14)">
  <metadata
     id="metadata72">
    <rdf:RDF>
      <cc:Work
         rdf:about="">
        <dc:format>image/svg+xml</dc:format>
        <dc:type
           rdf:resource="http://purl.org/dc/dcmitype/StillImage" />
      </cc:Work>
    </rdf:RDF>
  </metadata>
  <defs
     id="defs70" />
  <sodipodi:namedview
     pagecolor="#ffffff"
     bordercolor="#666666"
     borderopacity="1"
     objecttolerance="10"
     gridtolerance="10"
     guidetolerance="10"
     inkscape:pageopacity="0"
     inkscape:pageshadow="2"
     inkscape:window-width="1239"
     inkscape:window-height="928"
     id="namedview68"
     showgrid="false"
     inkscape:zoom="7.63"
     inkscape:cx="27.06422"
     inkscape:cy="70.969856"
     inkscape:window-x="-11"
     inkscape:window-y="44"
     inkscape:window-maximized="0"
     inkscape:current-layer="DKEU" />
  <g
     id="DKEU"
     transform="translate(-109.74116,-320.70334)">
    <rect
       style="fill:#05689f;fill-opacity:1;"
       id="rect3682"
       width="54.642857"
       height="130.0166"
       x="109.74116"
       y="320.70334" />
    <g
       id="stars"
       transform="translate(2.298097,0)">
      <path
         transform="matrix(1.1923098,-0.08288153,0.08082566,1.2226372,61.27007,-94.609955)"
         d="m 37.67857,357.71931 -0.951535,-0.5883 -1.024066,0.45034 0.265464,-1.08676 -0.74475,-0.83478 1.115602,-0.0833 0.563785,-0.96627 0.424015,1.03525 1.093188,0.2376 -0.853545,0.72317 z"
         id="path3684"
         style="fill:#ffff00;fill-opacity:1;" />
      <path
         transform="matrix(1.1923098,-0.08288153,0.08082566,1.2226372,70.92632,-92.422465)"
         d="m 37.67857,357.71931 -0.951535,-0.5883 -1.024066,0.45034 0.265464,-1.08676 -0.74475,-0.83478 1.115602,-0.0833 0.563785,-0.96627 0.424015,1.03525 1.093188,0.2376 -0.853545,0.72317 z"
         id="path3684-0"
         style="fill:#ffff00;fill-opacity:1;" />
      <path
         transform="matrix(1.1923098,-0.08288153,0.08082566,1.2226372,51.86382,-92.422465)"
         d="m 37.67857,357.71931 -0.951535,-0.5883 -1.024066,0.45034 0.265464,-1.08676 -0.74475,-0.83478 1.115602,-0.0833 0.563785,-0.96627 0.424015,1.03525 1.093188,0.2376 -0.853545,0.72317 z"
         id="path3684-0-9"
         style="fill:#ffff00;fill-opacity:1;" />
      <path
         transform="matrix(1.1923098,-0.08288153,0.08082566,1.2226372,77.30132,-85.641215)"
         d="m 37.67857,357.71931 -0.951535,-0.5883 -1.024066,0.45034 0.265464,-1.08676 -0.74475,-0.83478 1.115602,-0.0833 0.563785,-0.96627 0.424015,1.03525 1.093188,0.2376 -0.853545,0.72317 z"
         id="path3684-0-4"
         style="fill:#ffff00;fill-opacity:1;" />
      <path
         transform="matrix(1.1923098,-0.08288153,0.08082566,1.2226372,45.23882,-85.641215)"
         d="m 37.67857,357.71931 -0.951535,-0.5883 -1.024066,0.45034 0.265464,-1.08676 -0.74475,-0.83478 1.115602,-0.0833 0.563785,-0.96627 0.424015,1.03525 1.093188,0.2376 -0.853545,0.72317 z"
         id="path3684-0-9-8"
         style="fill:#ffff00;fill-opacity:1;" />
      <path
         transform="matrix(1.1923098,-0.08288153,0.08082566,1.2226372,79.98882,-75.766215)"
         d="m 37.67857,357.71931 -0.951535,-0.5883 -1.024066,0.45034 0.265464,-1.08676 -0.74475,-0.83478 1.115602,-0.0833 0.563785,-0.96627 0.424015,1.03525 1.093188,0.2376 -0.853545,0.72317 z"
         id="path3684-0-4-2"
         style="fill:#ffff00;fill-opacity:1;" />
      <path
         transform="matrix(1.1923098,-0.08288153,0.08082566,1.2226372,42.92632,-75.766215)"
         d="m 37.67857,357.71931 -0.951535,-0.5883 -1.024066,0.45034 0.265464,-1.08676 -0.74475,-0.83478 1.115602,-0.0833 0.563785,-0.96627 0.424015,1.03525 1.093188,0.2376 -0.853545,0.72317 z"
         id="path3684-0-9-8-4"
         style="fill:#ffff00;fill-opacity:1;" />
      <path
         transform="matrix(1.1923098,-0.08288153,0.08082566,1.2226372,77.80132,-66.266215)"
         d="m 37.67857,357.71931 -0.951535,-0.5883 -1.024066,0.45034 0.265464,-1.08676 -0.74475,-0.83478 1.115602,-0.0833 0.563785,-0.96627 0.424015,1.03525 1.093188,0.2376 -0.853545,0.72317 z"
         id="path3684-0-4-1"
         style="fill:#ffff00;fill-opacity:1;" />
      <path
         transform="matrix(1.1923098,-0.08288153,0.08082566,1.2226372,45.73882,-66.266215)"
         d="m 37.67857,357.71931 -0.951535,-0.5883 -1.024066,0.45034 0.265464,-1.08676 -0.74475,-0.83478 1.115602,-0.0833 0.563785,-0.96627 0.424015,1.03525 1.093188,0.2376 -0.853545,0.72317 z"
         id="path3684-0-9-8-7"
         style="fill:#ffff00;fill-opacity:1;" />
      <path
         transform="matrix(1.1923098,-0.08288153,0.08082566,1.2226372,70.80132,-60.016215)"
         d="m 37.67857,357.71931 -0.951535,-0.5883 -1.024066,0.45034 0.265464,-1.08676 -0.74475,-0.83478 1.115602,-0.0833 0.563785,-0.96627 0.424015,1.03525 1.093188,0.2376 -0.853545,0.72317 z"
         id="path3684-0-1"
         style="fill:#ffff00;fill-opacity:1;" />
      <path
         transform="matrix(1.1923098,-0.08288153,0.08082566,1.2226372,51.73882,-60.016215)"
         d="m 37.67857,357.71931 -0.951535,-0.5883 -1.024066,0.45034 0.265464,-1.08676 -0.74475,-0.83478 1.115602,-0.0833 0.563785,-0.96627 0.424015,1.03525 1.093188,0.2376 -0.853545,0.72317 z"
         id="path3684-0-9-1"
         style="fill:#ffff00;fill-opacity:1;" />
      <path
         transform="matrix(1.1923098,-0.08288153,0.08082566,1.2226372,61.27007,-57.141215)"
         d="m 37.67857,357.71931 -0.951535,-0.5883 -1.024066,0.45034 0.265464,-1.08676 -0.74475,-0.83478 1.115602,-0.0833 0.563785,-0.96627 0.424015,1.03525 1.093188,0.2376 -0.853545,0.72317 z"
         id="path3684-5"
         style="fill:#ffff00;fill-opacity:1;" />
    </g>
    <text
       xml:space="preserve"
       style="font-style:normal;font-weight:normal;font-size:40px;line-height:1.25;font-family:sans-serif;letter-spacing:0px;word-spacing:0px;fill:#000000;fill-opacity:1;stroke:none"
       x="114.7215"
       y="428.3049"
       id="text3779"><tspan
         sodipodi:role="line"
         id="tspan3777"
         x="114.7215"
         y="428.3049"
         style="fill:#ffffff">LT</tspan></text>
  </g>
</svg>
